<svg width="24" height="25" viewBox="0 0 24 25" fill="none" xmlns="http://www.w3.org/2000/svg">
<path d="M19 4.95312H5C4.20435 4.95312 3.44129 5.2692 2.87868 5.8318C2.31607 6.39441 2 7.15748 2 7.95312V17.9531C2 18.7488 2.31607 19.5118 2.87868 20.0744C3.44129 20.6371 4.20435 20.9531 5 20.9531H19C19.7956 20.9531 20.5587 20.6371 21.1213 20.0744C21.6839 19.5118 22 18.7488 22 17.9531V7.95312C22 7.15748 21.6839 6.39441 21.1213 5.8318C20.5587 5.2692 19.7956 4.95313 19 4.95312ZM18.59 6.95312L12.71 12.8331C12.617 12.9269 12.5064 13.0012 12.3846 13.052C12.2627 13.1028 12.132 13.1289 12 13.1289C11.868 13.1289 11.7373 13.1028 11.6154 13.052C11.4936 13.0012 11.383 12.9269 11.29 12.8331L5.41 6.95312H18.59ZM20 17.9531C20 18.2183 19.8946 18.4727 19.7071 18.6602C19.5196 18.8478 19.2652 18.9531 19 18.9531H5C4.73478 18.9531 4.48043 18.8478 4.29289 18.6602C4.10536 18.4727 4 18.2183 4 17.9531V8.36312L9.88 14.2431C10.4425 14.8049 11.205 15.1205 12 15.1205C12.795 15.1205 13.5575 14.8049 14.12 14.2431L20 8.36312V17.9531Z" fill="#B1E457"/>
</svg>
